HIERARCHY
ROOT RootJoint
{
    OFFSET   0.000000   0.000000   0.000000
    CHANNELS 6 Xposition Yposition Zposition Xrotation Yrotation Zrotation
    JOINT pelvis_lowerback
    {
        OFFSET   0.000000   0.093605   0.000000
        CHANNELS 3 Xrotation Yrotation Zrotation
        JOINT lowerback_torso
        {
            OFFSET   0.000000   0.100000   0.000000
            CHANNELS 3 Xrotation Yrotation Zrotation
            JOINT torso_head
            {
                OFFSET   0.000000   0.282350   0.000000
                CHANNELS 3 Xrotation Yrotation Zrotation
                End Site
                {
                    OFFSET   0.000000   0.192650   0.000000
                }
            }
            JOINT rTorso_Clavicle
            {
                OFFSET  -0.001000   0.157500   0.000000
                CHANNELS 3 Xrotation Yrotation Zrotation
                JOINT rShoulder
                {
                    OFFSET  -0.117647   0.000000   0.000000
                    CHANNELS 3 Xrotation Yrotation Zrotation
                    JOINT rElbow
                    {
                        OFFSET  -0.245000   0.000000   0.000000
                        CHANNELS 3 Xrotation Yrotation Zrotation
                        JOINT rWrist
                        {
                            OFFSET  -0.240000   0.000000   0.000000
                            CHANNELS 3 Xrotation Yrotation Zrotation
                            End Site
                            {
                                OFFSET  -0.116353  -0.002500   0.000000
                            }
                        }
                    }
                }
            }
            JOINT lTorso_Clavicle
            {
                OFFSET   0.001000   0.157500   0.000000
                CHANNELS 3 Xrotation Yrotation Zrotation
                JOINT lShoulder
                {
                    OFFSET   0.117647   0.000000   0.000000
                    CHANNELS 3 Xrotation Yrotation Zrotation
                    JOINT lElbow
                    {
                        OFFSET   0.245000   0.000000   0.000000
                        CHANNELS 3 Xrotation Yrotation Zrotation
                        JOINT lWrist
                        {
                            OFFSET   0.240000   0.000000   0.000000
                            CHANNELS 3 Xrotation Yrotation Zrotation
                            End Site
                            {
                                OFFSET   0.116353  -0.002500   0.000000
                            }
                        }
                    }
                }
            }
        }
    }
    JOINT rHip
    {
        OFFSET  -0.100000  -0.051395   0.000000
        CHANNELS 3 Xrotation Yrotation Zrotation
        JOINT rKnee
        {
            OFFSET   0.000000  -0.410000   0.000000
            CHANNELS 3 Xrotation Yrotation Zrotation
            JOINT rAnkle
            {
                OFFSET   0.000000  -0.390000   0.000000
                CHANNELS 3 Xrotation Yrotation Zrotation
                JOINT rToeJoint
                {
                    OFFSET   0.000000  -0.050000   0.130000
                    CHANNELS 3 Xrotation Yrotation Zrotation
                    End Site
                    {
                        OFFSET  -0.010000   0.002000   0.060000
                    }
                }
            }
        }
    }
    JOINT lHip
    {
        OFFSET   0.100000  -0.051395   0.000000
        CHANNELS 3 Xrotation Yrotation Zrotation
        JOINT lKnee
        {
            OFFSET   0.000000  -0.410000   0.000000
            CHANNELS 3 Xrotation Yrotation Zrotation
            JOINT lAnkle
            {
                OFFSET   0.000000  -0.390000   0.000000
                CHANNELS 3 Xrotation Yrotation Zrotation
                JOINT lToeJoint
                {
                    OFFSET   0.000000  -0.050000   0.130000
                    CHANNELS 3 Xrotation Yrotation Zrotation
                    End Site
                    {
                        OFFSET   0.010000   0.002000   0.060000
                    }
                }
            }
        }
    }
}
MOTION
Frames: 10
Frame Time:   0.008333
 -2.388627   0.904868   3.859897  24.433404 -10.036501   5.264604  34.361291  -1.091159   1.800343   0.679858  -1.009586  -0.114307   1.057343  -1.298654  -3.096536  -4.887407  20.965062  -6.124662 -10.390927  23.257159  31.416216  -0.000003  38.150477  -0.000004   1.984971   4.761208  -2.523433  -7.216372 -22.670847   5.013940  -2.869968 -26.615873 -22.656537   0.000024 -34.604002  -0.000141   7.364157  -7.829507   1.652743 -36.350523  -2.452964  -5.069762   4.881328   0.000003  -0.000003   7.904593   0.184777   2.968442  -1.181273  -0.000185  -0.000070 -30.694103   4.544470   8.440283  10.237408   0.000012  -0.000026  -3.030403   5.592683  -3.555211   0.328269  -0.000001   0.000001
 -2.388726   0.904881   3.859862  24.455394 -10.030133   5.262363  34.315132  -1.081124   1.780977   0.692142  -1.009962  -0.135119   1.098438  -1.312443  -3.101673  -4.878339  20.960004  -6.157607 -10.394943  23.250017  31.397444  -0.000008  38.162639  -0.000008   1.980984   4.750066  -2.530520  -7.222462 -22.647111   5.013298  -2.874175 -26.640673 -22.668128   0.000012 -34.689628  -0.000159   7.363660  -7.825017   1.634972 -36.356586  -2.448187  -5.058118   4.852269   0.000004  -0.000006   7.900491   0.168730   2.961274  -1.079719  -0.000146  -0.000056 -30.697876   4.546760   8.449051  10.189260   0.000012  -0.000024  -3.002528   5.585650  -3.555079   0.329790  -0.000001   0.000001
 -2.388803   0.904892   3.859828  24.476977 -10.025656   5.262696  34.269636  -1.071876   1.760985   0.701598  -1.010435  -0.157554   1.138699  -1.325608  -3.107380  -4.871215  20.956319  -6.190866 -10.399466  23.244292  31.378331  -0.000012  38.174562  -0.000012   1.977565   4.741731  -2.537102  -7.230804 -22.625927   5.014781  -2.879724 -26.665635 -22.676973  -0.000004 -34.771593  -0.000172   7.363592  -7.831762   1.622718 -36.361596  -2.442142  -5.048949   4.819744   0.000005  -0.000008   7.902264   0.154882   2.952541  -0.997763  -0.000114  -0.000045 -30.701654   4.550323   8.454970  10.143399   0.000011  -0.000021  -2.975730   5.580306  -3.555902   0.330774  -0.000001   0.000001
 -2.388864   0.904903   3.859795  24.496886 -10.021104   5.263784  34.225660  -1.063947   1.741378   0.708307  -1.011367  -0.179427   1.176541  -1.337919  -3.112980  -4.865703  20.953671  -6.223095 -10.404439  23.239528  31.359462  -0.000016  38.186004  -0.000014   1.974435   4.735430  -2.545375  -7.240102 -22.607413   5.017374  -2.885811 -26.689831 -22.683924  -0.000022 -34.848618  -0.000180   7.363668  -7.842094   1.615261 -36.365895  -2.436140  -5.041964   4.788295   0.000005  -0.000010   7.906379   0.142002   2.943320  -0.931626  -0.000088  -0.000036 -30.705169   4.553743   8.458851  10.100967   0.000010  -0.000019  -2.950678   5.575338  -3.557199   0.331395  -0.000001   0.000001
 -2.388911   0.904913   3.859767  24.514774 -10.016139   5.265028  34.183106  -1.057211   1.722413   0.712764  -1.012700  -0.200246   1.211861  -1.349420  -3.118307  -4.861289  20.951732  -6.253802 -10.409604  23.235483  31.341273  -0.000019  38.196909  -0.000014   1.971512   4.730596  -2.555120  -7.249740 -22.591063   5.020546  -2.892079 -26.713012 -22.689574  -0.000038 -34.920774  -0.000184   7.363816  -7.853525   1.610955 -36.369268  -2.430513  -5.036791   4.758850   0.000005  -0.000011   7.911562   0.129757   2.934030  -0.878197  -0.000067  -0.000029 -30.708039   4.556765   8.461184  10.061900   0.000009  -0.000017  -2.927484   5.570408  -3.558853   0.331720  -0.000001   0.000000
 -2.388947   0.904922   3.859745  24.530628 -10.010773   5.266201  34.141807  -1.051467   1.704156   0.715346  -1.014297  -0.219930   1.244749  -1.360164  -3.123334  -4.857607  20.950258  -6.282802 -10.414763  23.231984  31.323996  -0.000021  38.207252  -0.000014   1.968755   4.726849  -2.565692  -7.259372 -22.576421   5.024022  -2.898314 -26.735046 -22.694283  -0.000052 -34.988284  -0.000185   7.364003  -7.865268   1.608704 -36.371590  -2.425350  -5.033125   4.731520   0.000005  -0.000011   7.917198   0.118051   2.924853  -0.834955  -0.000051  -0.000023 -30.710092   4.559367   8.462289  10.025969   0.000008  -0.000015  -2.906136   5.565444  -3.560768   0.331803  -0.000001   0.000000
 -2.388972   0.904931   3.859728  24.544551 -10.005045   5.267206  34.101656  -1.046535   1.686604   0.716328  -1.016032  -0.238493   1.275328  -1.370196  -3.128064  -4.854418  20.949080  -6.310049 -10.419789  23.228906  31.307729  -0.000022  38.217027  -0.000014   1.966140   4.723911  -2.576594  -7.268804 -22.563133   5.027661  -2.904387 -26.755857 -22.698260  -0.000064 -35.051396  -0.000183   7.364215  -7.876969   1.607850 -36.372828  -2.420676  -5.030731   4.706206   0.000005  -0.000011   7.922930   0.106825   2.915880  -0.799874  -0.000038  -0.000018 -30.711291   4.561564   8.462345   9.992940   0.000007  -0.000014  -2.886661   5.560440  -3.562324   0.331801  -0.000000   0.000000
 -2.389006   0.904948   3.859740  24.540284 -10.004250   5.268526  34.076389  -1.038562   1.667274   0.721188  -1.016080  -0.260112   1.308597  -1.376158  -3.135001  -4.852396  20.938733  -6.333525 -10.433376  23.227175  31.301641  -0.000031  38.239093  -0.000014   1.969764   4.714982  -2.582312  -7.268915 -22.550890   5.033606  -2.904193 -26.775380 -22.696384  -0.000073 -35.134248  -0.000182   7.365605  -7.878095   1.620407 -36.364405  -2.418538  -5.030500   4.702056   0.000004  -0.000009   7.917456   0.103731   2.910503  -0.772502  -0.000030  -0.000015 -30.686249   4.563852   8.460478   9.953026   0.000006  -0.000011  -2.866765   5.560964  -3.567526   0.331122  -0.000000   0.000000
 -2.389047   0.904966   3.859765  24.532443 -10.003314   5.268073  34.050582  -1.030309   1.649801   0.727165  -1.015401  -0.280852   1.340551  -1.381500  -3.141912  -4.849747  20.928582  -6.354108 -10.445962  23.226022  31.297583  -0.000036  38.260586  -0.000014   1.973411   4.711966  -2.585643  -7.267561 -22.538843   5.037801  -2.903531 -26.794183 -22.696505  -0.000079 -35.212670  -0.000180   7.367412  -7.886861   1.630395 -36.353840  -2.417414  -5.029488   4.703440   0.000003  -0.000007   7.909075   0.100768   2.906503  -0.750818  -0.000024  -0.000012 -30.657892   4.565718   8.459860   9.915546   0.000006  -0.000009  -2.849444   5.560864  -3.571983   0.330710  -0.000000   0.000000
 -2.389093   0.904984   3.859800  24.523414 -10.002303   5.266440  34.024127  -1.022112   1.633602   0.732195  -1.014139  -0.300281   1.370213  -1.386446  -3.148373  -4.846719  20.919189  -6.372617 -10.457551  23.225193  31.294673  -0.000040  38.280844  -0.000012   1.976958   4.711079  -2.586834  -7.265387 -22.527088   5.040870  -2.902510 -26.811688 -22.697671  -0.000082 -35.285968  -0.000176   7.369179  -7.897429   1.637508 -36.342219  -2.416923  -5.027629   4.706661   0.000002  -0.000006   7.899928   0.097757   2.903280  -0.733603  -0.000019  -0.000009 -30.629084   4.567222   8.460374   9.880627   0.000006  -0.000007  -2.834224   5.560350  -3.575846   0.330501  -0.000000   0.000000
